<?xml version="1.0" standalone="no"?>
<!DOCTYPE svg PUBLIC "-//W3C//DTD SVG 20010904//EN"
 "http://www.w3.org/TR/2001/REC-SVG-20010904/DTD/svg10.dtd">
<svg version="1.0" xmlns="http://www.w3.org/2000/svg"
 width="1024.000000pt" height="1024.000000pt" viewBox="0 0 1024.000000 1024.000000"
 preserveAspectRatio="xMidYMid meet">

<g transform="translate(0.000000,1024.000000) scale(0.100000,-0.100000)"
fill="#000000" stroke="none">
<path d="M0 5120 l0 -5120 5120 0 5120 0 0 5120 0 5120 -5120 0 -5120 0 0
-5120z m4600 1767 c0 -7 7 -113 16 -236 18 -257 16 -292 -10 -206 -60 200
-201 337 -402 390 -86 23 -267 35 -536 35 l-238 0 0 -661 0 -660 303 3 c333 4
359 8 451 70 60 39 101 102 117 177 6 31 14 64 17 74 4 10 7 -146 7 -347 0
-201 -3 -359 -6 -353 -3 7 -11 37 -18 68 -24 112 -100 191 -225 232 -55 19
-92 21 -354 25 l-293 4 3 -649 c4 -707 4 -701 63 -778 48 -64 54 -65 362 -65
308 0 421 12 541 55 104 37 182 86 239 149 52 56 122 180 144 254 14 49 32 57
25 10 -3 -18 -19 -127 -36 -243 -17 -115 -33 -222 -36 -237 l-6 -28 -934 0
c-616 0 -934 3 -934 10 0 6 11 10 25 10 13 0 48 5 77 11 43 9 63 21 104 63 30
29 57 68 65 91 18 53 26 2330 9 2439 -25 163 -104 251 -242 271 -46 7 -56 14
-41 28 3 4 397 7 875 7 708 0 868 -2 868 -13z m1580 -10 c245 -43 443 -136
576 -272 155 -160 220 -394 183 -661 -46 -331 -299 -545 -753 -638 l-111 -23
60 -13 c215 -45 369 -162 533 -402 93 -138 156 -254 302 -560 307 -644 480
-872 699 -919 65 -14 153 2 197 36 48 37 63 30 23 -11 -156 -161 -489 -130
-730 69 -153 127 -235 253 -439 682 -271 568 -346 705 -474 857 -72 86 -143
143 -231 184 -89 41 -161 54 -301 54 -102 0 -139 8 -121 27 3 2 119 9 259 13
277 9 340 20 442 71 121 61 209 155 276 294 119 248 110 604 -21 820 -102 169
-241 264 -480 331 -83 23 -118 26 -306 31 l-213 6 0 -1284 c0 -799 4 -1310 10
-1353 12 -77 50 -157 88 -182 30 -20 115 -44 155 -44 15 0 27 -4 27 -10 0 -7
-153 -10 -440 -10 -410 0 -542 8 -365 23 122 11 171 43 217 142 l23 50 0 1235
c0 1343 3 1270 -56 1357 -38 55 -98 83 -194 90 -56 4 -75 10 -75 20 0 21 1114
12 1240 -10z"/>
</g>
</svg>
